<svg width="1008" height="1000" viewBox="0 0 1008 1000" fill="none" xmlns="http://www.w3.org/2000/svg">
<circle cx="503" cy="500" r="495" fill="#2E2E2E" stroke="black" stroke-width="10"/>
<line x1="54.7545" y1="330.492" x2="569.744" y2="989.649" stroke="black" stroke-width="10"/>
<line x1="143.999" y1="175.715" x2="738.88" y2="937.128" stroke="black" stroke-width="10"/>
<line x1="264.94" y1="71.9217" x2="866.651" y2="842.076" stroke="black" stroke-width="10"/>
<line x1="445.114" y1="4.78546" x2="973.586" y2="681.198" stroke="black" stroke-width="10"/>
<line x1="701.055" y1="35.8349" x2="1003.94" y2="423.924" stroke="black" stroke-width="10"/>
<line x1="25.3175" y1="541.788" x2="360.429" y2="970.711" stroke="black" stroke-width="10"/>
<line x1="84.4594" y1="748.453" x2="651.974" y2="22.0674" stroke="black" stroke-width="10"/>
<line x1="16.8016" y1="533.72" x2="424.318" y2="12.1232" stroke="black" stroke-width="10"/>
<line x1="221.662" y1="898.393" x2="829.457" y2="120.45" stroke="black" stroke-width="10"/>
<line x1="393.872" y1="977.345" x2="949.247" y2="266.498" stroke="black" stroke-width="10"/>
<line x1="602.433" y1="982.213" x2="1003.69" y2="468.63" stroke="black" stroke-width="10"/>
<line x1="35.4493" y1="343.305" x2="540.236" y2="989.402" stroke="black" stroke-width="10"/>
<line x1="119.699" y1="183.11" x2="713.182" y2="942.733" stroke="black" stroke-width="10"/>
<line x1="238.611" y1="77.1784" x2="845.269" y2="853.665" stroke="black" stroke-width="10"/>
<line x1="416.94" y1="6.922" x2="955.94" y2="696.922" stroke="black" stroke-width="10"/>
<line x1="673.441" y1="34.0821" x2="993.554" y2="443.809" stroke="black" stroke-width="10"/>
<line x1="11.8678" y1="561.978" x2="323.702" y2="961.108" stroke="black" stroke-width="10"/>
<line x1="63.0592" y1="737.923" x2="621.974" y2="22.2045" stroke="black" stroke-width="10"/>
<line x1="4.06727" y1="514.149" x2="393.86" y2="15.2377" stroke="black" stroke-width="10"/>
<line x1="197.178" y1="892.013" x2="805.943" y2="112.83" stroke="black" stroke-width="10"/>
<line x1="364.321" y1="977.832" x2="928.612" y2="255.571" stroke="black" stroke-width="10"/>
<line x1="572.081" y1="982.075" x2="988.412" y2="449.196" stroke="black" stroke-width="10"/>
</svg>
