<svg width="1009" height="1000" viewBox="0 0 1009 1000" fill="none" xmlns="http://www.w3.org/2000/svg">
<circle cx="503" cy="500" r="495" fill="black" stroke="black" stroke-width="10"/>
<line x1="40.7845" y1="333.031" x2="555.774" y2="992.188" stroke="#2E2E2E" stroke-width="5"/>
<line x1="130.029" y1="178.254" x2="724.91" y2="939.668" stroke="#2E2E2E" stroke-width="5"/>
<line x1="250.97" y1="74.4608" x2="852.681" y2="844.615" stroke="#2E2E2E" stroke-width="5"/>
<line x1="431.144" y1="7.32462" x2="959.616" y2="683.737" stroke="#2E2E2E" stroke-width="5"/>
<line x1="687.085" y1="38.373" x2="989.971" y2="426.462" stroke="#2E2E2E" stroke-width="5"/>
<line x1="11.3475" y1="544.327" x2="346.459" y2="973.25" stroke="#2E2E2E" stroke-width="5"/>
<line x1="74.4294" y1="750.993" x2="641.944" y2="24.6065" stroke="#2E2E2E" stroke-width="5"/>
<line x1="6.77167" y1="536.259" x2="414.288" y2="14.6624" stroke="#2E2E2E" stroke-width="5"/>
<line x1="211.632" y1="900.932" x2="819.427" y2="122.989" stroke="#2E2E2E" stroke-width="5"/>
<line x1="383.842" y1="979.884" x2="939.217" y2="269.037" stroke="#2E2E2E" stroke-width="5"/>
<line x1="592.403" y1="984.752" x2="993.657" y2="471.169" stroke="#2E2E2E" stroke-width="5"/>
<line x1="50.9689" y1="320.459" x2="576.812" y2="992.494" stroke="#2E2E2E" stroke-width="5"/>
<line x1="144.97" y1="170.461" x2="746.169" y2="939.804" stroke="#2E2E2E" stroke-width="5"/>
<line x1="269.97" y1="70.4611" x2="872.97" y2="842.461" stroke="#2E2E2E" stroke-width="5"/>
<line x1="452.401" y1="7.45883" x2="976.969" y2="677.459" stroke="#2E2E2E" stroke-width="5"/>
<line x1="710.969" y1="42.4597" x2="1001.97" y2="414.46" stroke="#2E2E2E" stroke-width="5"/>
<line x1="18.8367" y1="526.565" x2="367.851" y2="973.283" stroke="#2E2E2E" stroke-width="5"/>
<line x1="89.3185" y1="758.686" x2="662.914" y2="24.5173" stroke="#2E2E2E" stroke-width="5"/>
<line x1="18.0297" y1="547.461" x2="436.299" y2="11.8884" stroke="#2E2E2E" stroke-width="5"/>
<line x1="230.526" y1="904.068" x2="838.533" y2="125.854" stroke="#2E2E2E" stroke-width="5"/>
<line x1="405.1" y1="980.022" x2="954.029" y2="276.462" stroke="#2E2E2E" stroke-width="5"/>
<line x1="613.659" y1="984.89" x2="1007.03" y2="480.463" stroke="#2E2E2E" stroke-width="5"/>
<line x1="29.4793" y1="340.844" x2="534.266" y2="986.941" stroke="#2E2E2E" stroke-width="5"/>
<line x1="113.729" y1="180.649" x2="707.211" y2="940.273" stroke="#2E2E2E" stroke-width="5"/>
<line x1="232.641" y1="74.7177" x2="839.299" y2="851.204" stroke="#2E2E2E" stroke-width="5"/>
<line x1="410.97" y1="4.461" x2="949.97" y2="694.461" stroke="#2E2E2E" stroke-width="5"/>
<line x1="667.468" y1="31.6191" x2="989.968" y2="443.459" stroke="#2E2E2E" stroke-width="5"/>
<line x1="5.89776" y1="559.517" x2="317.732" y2="958.647" stroke="#2E2E2E" stroke-width="5"/>
<line x1="61.0296" y1="735.461" x2="619.945" y2="19.7432" stroke="#2E2E2E" stroke-width="5"/>
<line x1="2.0373" y1="511.688" x2="391.83" y2="12.7769" stroke="#2E2E2E" stroke-width="5"/>
<line x1="195.148" y1="889.553" x2="803.913" y2="110.369" stroke="#2E2E2E" stroke-width="5"/>
<line x1="362.291" y1="975.371" x2="926.583" y2="253.11" stroke="#2E2E2E" stroke-width="5"/>
<line x1="570.051" y1="979.614" x2="986.382" y2="446.735" stroke="#2E2E2E" stroke-width="5"/>
</svg>
