<svg width="1001" height="1020" viewBox="0 0 1001 1020" fill="none" xmlns="http://www.w3.org/2000/svg">
<circle cx="500" cy="520" r="495" fill="black" stroke="#333333" stroke-width="10"/>
<line x1="24.7463" y1="395.254" x2="626.747" y2="997.254" stroke="#333333" stroke-width="6"/>
<line x1="88.7463" y1="241.254" x2="774.247" y2="926.754" stroke="#333333" stroke-width="6"/>
<line x1="183.37" y1="138.628" x2="880.956" y2="836.213" stroke="#333333" stroke-width="6"/>
<line x1="324.366" y1="59.6243" x2="966.842" y2="702.1" stroke="#333333" stroke-width="6"/>
<line x1="508.746" y1="25.2537" x2="998.32" y2="514.827" stroke="#333333" stroke-width="6"/>
<line x1="9.24437" y1="576.752" x2="441.748" y2="1009.26" stroke="#333333" stroke-width="6"/>
<line x1="44.8785" y1="718.879" x2="698.834" y2="64.8349" stroke="#333333" stroke-width="6"/>
<line x1="3.15163" y1="538.152" x2="515.176" y2="26.1279" stroke="#333333" stroke-width="6"/>
<line x1="132.879" y1="850.966" x2="830.951" y2="152.893" stroke="#333333" stroke-width="6"/>
<line x1="257.591" y1="948.607" x2="931.032" y2="275.166" stroke="#333333" stroke-width="6"/>
<line x1="411.378" y1="1009.38" x2="986.379" y2="434.379" stroke="#333333" stroke-width="6"/>
<line x1="638.879" y1="995.747" x2="968.381" y2="666.245" stroke="#333333" stroke-width="6"/>
<line x1="24.4734" y1="372.879" x2="626.474" y2="974.879" stroke="#333333" stroke-width="6"/>
<line x1="88.4734" y1="218.879" x2="773.974" y2="904.379" stroke="#333333" stroke-width="6"/>
<line x1="183.097" y1="116.253" x2="880.683" y2="813.838" stroke="#333333" stroke-width="6"/>
<line x1="324.093" y1="37.2493" x2="966.569" y2="679.725" stroke="#333333" stroke-width="6"/>
<line x1="508.473" y1="2.87868" x2="998.047" y2="492.452" stroke="#333333" stroke-width="6"/>
<line x1="8.97142" y1="554.377" x2="441.475" y2="986.881" stroke="#333333" stroke-width="6"/>
<line x1="44.6056" y1="696.504" x2="698.561" y2="42.4599" stroke="#333333" stroke-width="6"/>
<line x1="2.87868" y1="515.777" x2="514.903" y2="3.75292" stroke="#333333" stroke-width="6"/>
<line x1="132.606" y1="828.591" x2="830.678" y2="130.518" stroke="#333333" stroke-width="6"/>
<line x1="257.318" y1="926.232" x2="930.759" y2="252.791" stroke="#333333" stroke-width="6"/>
<line x1="411.105" y1="987.005" x2="986.106" y2="412.004" stroke="#333333" stroke-width="6"/>
<line x1="639.299" y1="974.069" x2="974.185" y2="639.182" stroke="#333333" stroke-width="6"/>
</svg>
